<svg width="23" height="23" viewBox="0 0 23 23" fill="none" xmlns="http://www.w3.org/2000/svg">
<path opacity="0.5" d="M2.55664 6.89985V6.89985H20.4455V4.59985H2.55664V6.89985Z" fill="black" fill-opacity="0.54"/>
<path d="M5.11133 10.3501H7.66688V12.6501H5.11133V10.3501Z" fill="white"/>
<path fill-rule="evenodd" clip-rule="evenodd" d="M20.4444 2.3H19.1667V0H16.6111V2.3H6.38889V0H3.83333V2.3H2.55556C1.13722 2.3 0.0127778 3.335 0.0127778 4.6L0 20.7C0 21.965 1.13722 23 2.55556 23H20.4444C21.85 23 23 21.965 23 20.7V4.6C23 3.335 21.85 2.3 20.4444 2.3ZM20.4436 20.7H2.55469V9.20004H20.4436V20.7ZM2.55469 6.89979H20.4436V4.59979H2.55469V6.89979Z" fill="white"/>
<path d="M15.333 10.3501H17.8886V12.6501H15.333V10.3501Z" fill="white"/>
<path d="M10.2227 10.3501H12.7782V12.6501H10.2227V10.3501Z" fill="white"/>
</svg>
