<svg width="23" height="23" viewBox="0 0 23 23" fill="none" xmlns="http://www.w3.org/2000/svg">
<path d="M10.2227 5.11108H17.8893V7.66664H10.2227V5.11108Z" fill="white"/>
<path d="M10.2227 10.2222H17.8893V12.7777H10.2227V10.2222Z" fill="white"/>
<path d="M10.2227 15.3333H17.8893V17.8888H10.2227V15.3333Z" fill="white"/>
<path d="M5.11133 5.11108H7.66688V7.66664H5.11133V5.11108Z" fill="white"/>
<path d="M5.11133 10.2222H7.66688V12.7777H5.11133V10.2222Z" fill="white"/>
<path d="M5.11133 15.3333H7.66688V17.8888H5.11133V15.3333Z" fill="white"/>
<path fill-rule="evenodd" clip-rule="evenodd" d="M1.15 0H21.85C22.3611 0 23 0.511111 23 1.15V21.85C23 22.3611 22.3611 23 21.85 23H1.15C0.511111 23 0 22.3611 0 21.85V1.15C0 0.511111 0.511111 0 1.15 0ZM2.55469 20.4444H20.4436V2.55554H2.55469V20.4444Z" fill="white"/>
</svg>
