<svg width="23" height="23" viewBox="0 0 23 23" fill="none" xmlns="http://www.w3.org/2000/svg">
<path fill-rule="evenodd" clip-rule="evenodd" d="M16.4258 0.23L22.7125 5.65143L23 6.24286V22.1786L22.0417 23H0.958333L0 22.1786V0.821429L0.958333 0H15.755L16.4258 0.23ZM15.3333 6.57143H21.0833L15.3333 1.64286V6.57143ZM1.91667 1.64286V21.3571H21.0833V8.21429H14.375L13.4167 7.39286V1.64286H1.91667ZM5.86851 14.0183L9.35109 11.0152L7.99217 9.85696L3.83301 13.4367V14.5982L7.99409 18.1698L9.34917 17.0083L5.86851 14.0183ZM13.033 11.03L14.3747 9.86517L18.5703 13.4384V14.6032L14.3747 18.1731L13.0234 17.0083L16.5328 14.0183L13.033 11.03Z" fill="white"/>
</svg>
