<svg width="28" height="30" viewBox="0 0 28 30" fill="none" xmlns="http://www.w3.org/2000/svg">
<g clip-path="url(#clip0_6_218)">
<path d="M28 15.3446C28 14.3249 27.9212 13.2998 27.7533 12.2966H14.2808V18.0729H21.9959C21.6757 19.9358 20.647 21.5838 19.1407 22.631V26.3789H23.7436C26.4465 23.7664 28 19.9082 28 15.3446Z" fill="#4285F4"/>
<path d="M14.2806 29.9999C18.1329 29.9999 21.3816 28.6716 23.7487 26.3788L19.1458 22.6308C17.8652 23.5458 16.212 24.0639 14.2859 24.0639C10.5595 24.0639 7.40001 21.4238 6.26637 17.8743H1.5166V21.7379C3.94134 26.8032 8.88005 29.9999 14.2806 29.9999Z" fill="#34A853"/>
<path d="M6.26148 17.8744C5.66316 16.0115 5.66316 13.9942 6.26148 12.1313V8.26758H1.51696C-0.508908 12.506 -0.508908 17.4996 1.51696 21.7381L6.26148 17.8744Z" fill="#FBBC04"/>
<path d="M14.2806 5.9361C16.317 5.90303 18.2851 6.70773 19.7599 8.18486L23.8379 3.90229C21.2557 1.3559 17.8285 -0.0440591 14.2806 3.427e-05C8.88005 3.427e-05 3.94134 3.1968 1.5166 8.26753L6.26112 12.1312C7.38952 8.57619 10.5543 5.9361 14.2806 5.9361Z" fill="#EA4335"/>
</g>
<defs>
<clipPath id="clip0_6_218">
<rect width="28" height="30" fill="white"/>
</clipPath>
</defs>
</svg>
