<svg width="23" height="23" viewBox="0 0 23 23" fill="none" xmlns="http://www.w3.org/2000/svg">
<path d="M23 22C23 22.5523 22.5523 23 22 23H14.8C14.2477 23 13.8 22.5523 13.8 22V14.8C13.8 14.2477 14.2477 13.8 14.8 13.8H22C22.5523 13.8 23 14.2477 23 14.8V22ZM9.2 22C9.2 22.5523 8.75228 23 8.2 23H0.999999C0.447714 23 0 22.5523 0 22V14.8C0 14.2477 0.447715 13.8 1 13.8H8.2C8.75229 13.8 9.2 14.2477 9.2 14.8V22ZM23 8.2C23 8.75229 22.5523 9.2 22 9.2H14.8C14.2477 9.2 13.8 8.75228 13.8 8.2V0.999999C13.8 0.447714 14.2477 0 14.8 0H22C22.5523 0 23 0.447715 23 1V8.2ZM9.2 8.2C9.2 8.75229 8.75228 9.2 8.2 9.2H0.999999C0.447714 9.2 0 8.75228 0 8.2V0.999999C0 0.447714 0.447715 0 1 0H8.2C8.75229 0 9.2 0.447715 9.2 1V8.2Z" fill="white"/>
</svg>
