<svg width="33" height="32" viewBox="0 0 33 32" fill="none" xmlns="http://www.w3.org/2000/svg">
<g clip-path="url(#clip0_66_342)">
<path d="M16.5136 20.2741C13.9863 20.2741 11.9302 18.3467 11.9302 15.9777C11.9302 13.6088 13.9863 11.6814 16.5136 11.6814C19.0407 11.6814 21.0968 13.6088 21.0968 15.9777C21.0968 18.3467 19.0407 20.2741 16.5136 20.2741ZM16.5136 12.9703C14.7443 12.9703 13.3052 14.3194 13.3052 15.9777C13.3052 17.6361 14.7443 18.9852 16.5136 18.9852C18.2827 18.9852 19.7218 17.6361 19.7218 15.9777C19.7218 14.3194 18.2827 12.9703 16.5136 12.9703Z" fill="white"/>
<path d="M18.038 26.289H14.9891C14.2557 26.289 13.6077 25.8009 13.4482 25.1282L13.0623 23.5196C12.4334 23.2696 11.8339 22.9431 11.2711 22.5444L9.6 23.0392C8.88313 23.248 8.10399 22.9627 7.74463 22.3613L6.22494 19.8979C5.86088 19.2877 5.98375 18.5368 6.51918 18.0641L7.81428 16.948C7.77501 16.6206 7.7557 16.2958 7.7557 15.9779C7.7557 15.6599 7.77501 15.3351 7.81344 15.0077L6.52556 13.8968C5.98375 13.419 5.86004 12.668 6.22024 12.0657L7.74933 9.58675C8.10399 8.99202 8.88498 8.70945 9.59732 8.91477L11.2711 9.41054C11.8339 9.01185 12.4334 8.68538 13.0623 8.43522L13.4491 6.82505C13.6077 6.1548 14.2557 5.66675 14.9891 5.66675H18.038C18.7713 5.66675 19.4194 6.1548 19.5788 6.82757L19.9647 8.43616C20.5936 8.68617 21.1932 9.01264 21.756 9.41132L23.427 8.9165C24.1458 8.70945 24.9231 8.99297 25.2824 9.59446L26.8023 12.0579C27.1662 12.668 27.0433 13.419 26.5079 13.8916L25.2128 15.0077C25.2512 15.3351 25.2705 15.6608 25.2705 15.9779C25.2705 16.2949 25.2512 16.6206 25.2128 16.948L26.5015 18.0581C26.5033 18.0599 26.5052 18.0616 26.5079 18.0633C27.0433 18.5358 27.167 19.2869 26.8068 19.8892L25.2777 22.3682C24.9231 22.9627 24.1439 23.2472 23.4289 23.0392L21.755 22.5435C21.1922 22.9421 20.5926 23.2686 19.9639 23.5188L19.577 25.1289C19.4194 25.8009 18.7713 26.289 18.038 26.289ZM11.4114 21.1841C11.569 21.1841 11.7239 21.2347 11.8486 21.331C12.4784 21.8166 13.1649 22.1912 13.8918 22.4421C14.1109 22.5176 14.2732 22.6921 14.3246 22.9052L14.7912 24.8472C14.8121 24.9365 14.8956 25.0001 14.9901 25.0001H18.0388C18.1333 25.0001 18.2167 24.9365 18.2369 24.8489L18.7043 22.9052C18.7557 22.6921 18.918 22.5176 19.1371 22.4421C19.863 22.1912 20.5505 21.8166 21.1802 21.331C21.36 21.1918 21.6019 21.1471 21.8248 21.2133L23.8423 21.8106C23.9385 21.8389 24.0412 21.8054 24.0852 21.7314L25.6143 19.2525C25.6601 19.176 25.6435 19.0712 25.5703 19.0042L24.0229 17.6706C23.8551 17.5262 23.7745 17.3122 23.8084 17.1009C23.8688 16.7203 23.8992 16.3422 23.8992 15.9771C23.8992 15.6117 23.8688 15.2337 23.8084 14.8531C23.7745 14.6418 23.8551 14.4286 24.0229 14.2834L25.5738 12.9463C25.6435 12.8854 25.6601 12.7788 25.6096 12.6938L24.0897 10.2303C24.0404 10.1486 23.9358 10.116 23.8405 10.1443L21.8256 10.7406C21.6037 10.8069 21.3619 10.7622 21.1813 10.623C20.5515 10.1374 19.8648 9.76281 19.1379 9.51186C18.9188 9.43634 18.7565 9.26185 18.7053 9.04882L18.2387 7.10684C18.2157 7.0192 18.1323 6.95564 18.038 6.95564H14.9891C14.8947 6.95564 14.8113 7.0192 14.7912 7.10684L14.3235 9.05055C14.2724 9.26359 14.11 9.43713 13.891 9.51359C13.1649 9.76454 12.4774 10.1392 11.8486 10.6247C11.668 10.7639 11.4242 10.8077 11.2043 10.7424L9.1866 10.1451C9.09227 10.1178 8.9877 10.1503 8.94372 10.2243L7.41464 12.7023C7.36882 12.7797 7.38543 12.8862 7.46147 12.9532L9.007 14.2843C9.17468 14.4286 9.25541 14.6426 9.22151 14.854C9.16092 15.2346 9.1307 15.6127 9.1307 15.9779C9.1307 16.343 9.16092 16.7211 9.22151 17.1017C9.25541 17.3132 9.17468 17.5262 9.007 17.6714L7.45593 19.0084C7.38627 19.0695 7.36982 19.176 7.42018 19.2611L8.94003 21.7245C8.98854 21.8062 9.09311 21.838 9.18928 21.8106L11.2043 21.2141C11.2721 21.1935 11.3417 21.1841 11.4114 21.1841Z" fill="white"/>
</g>
<defs>
<clipPath id="clip0_66_342">
<rect width="22" height="20.6222" fill="white" transform="translate(5.5 5.66675)"/>
</clipPath>
</defs>
</svg>
